<?xml version="1.0" encoding="utf-8"?>
<!-- Generator: Adobe Illustrator 15.1.0, SVG Export Plug-In . SVG Version: 6.00 Build 0)  -->
<!DOCTYPE svg PUBLIC "-//W3C//DTD SVG 1.1//EN" "http://www.w3.org/Graphics/SVG/1.1/DTD/svg11.dtd">
<svg version="1.1" id="Layer_1" xmlns="http://www.w3.org/2000/svg" xmlns:xlink="http://www.w3.org/1999/xlink" x="0px" y="0px"
	 width="61.25px" height="103px" viewBox="0 0 61.25 103" enable-background="new 0 0 61.25 103" xml:space="preserve">
<g>
	<g>
		<polygon points="52.323,52.685 11.2,99.414 25.574,65.593 8.943,65.593 27.667,30.5 47.646,30.5 37.614,52.685 		"/>
		<path d="M37.171,7.256l8.289,10.365l8.297-10.365l-2.076,18.658H22.66L20.586,7.256l8.292,10.365L37.171,7.256z"/>
	</g>
	<g>
		<g>
			<polygon fill="#FCEE21" points="49.488,49.85 8.366,96.579 22.74,62.758 6.109,62.758 24.833,27.665 44.811,27.665 34.779,49.85 
							"/>
			<g transform="matrix(0.5419179,0,0,0.5419179,-158.78904,-221.54052)">
				<path fill="#E8E8E8" d="M356.373,416.967l15.296,19.127l15.31-19.127l-3.831,34.43h-53.551l-3.828-34.43l15.301,19.127
					L356.373,416.967z"/>
			</g>
		</g>
	</g>
</g>
</svg>
